# xmcd
#
# Track frame offsets:
#	183
#	13415
#	28728
#	41465
#	52475
#	63805
#	76108
#	92268
#	107693
#	119160
#	130780
#	145485
#	161915
#	173485
#	186155
#	200613
#
# Disc length: 2868 seconds
# Revision: 0
# Processed by: cddbd v1.5.2PL0 Copyright (c) Steve Scherf et al.
# Submitted via: dBpowerAMP V12.0
#
DISCID=e10b3210
DTITLE=Glen Miller - String of Pearls
DYEAR=1900
DGENRE=Big Band
TTITLE0=Little Brown Jug
TTITLE1=Sunrise Serenade
TTITLE2=Johnson Rag
TTITLE3=Sweet Stranger
TTITLE4=I'm Sitting On The Top Of The World
TTITLE5=Wistful And Blue
TTITLE6=In The Mood
TTITLE7=Moonlight Serenade
TTITLE8=The Jumpin' Jive
TTITLE9=Peg O' My Heart
TTITLE10=Pennsylvania 6-5000
TTITLE11=Hallelujah
TTITLE12=Moonlight Bay
TTITLE13=Solo Hop
TTITLE14=Farewell Blues
TTITLE15=A String Of Pearls
EXTD=
EXTT0=
EXTT1=
EXTT2=
EXTT3=
EXTT4=
EXTT5=
EXTT6=
EXTT7=
EXTT8=
EXTT9=
EXTT10=
EXTT11=
EXTT12=
EXTT13=
EXTT14=
EXTT15=
PLAYORDER=
